<mxfile host="Electron" modified="2024-03-06T15:00:38.145Z" agent="Mozilla/5.0 (Macintosh; Intel Mac OS X 10_15_7) AppleWebKit/537.36 (KHTML, like Gecko) draw.io/23.1.5 Chrome/120.0.6099.109 Electron/28.1.0 Safari/537.36" etag="d3VlHplNpur9AX-eIwnh" version="23.1.5" type="device">
  <diagram name="ページ1" id="FV2cs2arpIcV8Gp6CZtQ">
    <mxGraphModel dx="1272" dy="965" grid="1" gridSize="10" guides="1" tooltips="1" connect="1" arrows="1" fold="1" page="1" pageScale="1" pageWidth="1169" pageHeight="827" math="0" shadow="0">
      <root>
        <mxCell id="0" />
        <mxCell id="1" parent="0" />
        <mxCell id="XEaoXnlyZoOjbljqCAQR-1" value="expr, offset, count&lt;br&gt;&lt;b&gt;⬇ loadpdb.expand_expr_to_struct&lt;br&gt;&lt;/b&gt;dict" style="rounded=1;whiteSpace=wrap;html=1;" vertex="1" parent="1">
          <mxGeometry y="320" width="200" height="60" as="geometry" />
        </mxCell>
        <mxCell id="XEaoXnlyZoOjbljqCAQR-3" value="expr, virt_base, stream&lt;br&gt;&lt;b&gt;⬇ loadpdb.query_struct&lt;br&gt;&lt;/b&gt;dict" style="rounded=1;whiteSpace=wrap;html=1;" vertex="1" parent="1">
          <mxGeometry x="435" y="320" width="190" height="60" as="geometry" />
        </mxCell>
        <mxCell id="XEaoXnlyZoOjbljqCAQR-5" value="s, count, stream&lt;br&gt;&lt;b&gt;⬇ loadpdb.deref_struct&lt;br&gt;&lt;/b&gt;dict" style="rounded=1;whiteSpace=wrap;html=1;" vertex="1" parent="1">
          <mxGeometry x="740" y="320" width="160" height="60" as="geometry" />
        </mxCell>
        <mxCell id="XEaoXnlyZoOjbljqCAQR-34" style="edgeStyle=none;curved=1;rounded=0;orthogonalLoop=1;jettySize=auto;html=1;fontSize=12;startSize=8;endSize=8;" edge="1" parent="1" source="XEaoXnlyZoOjbljqCAQR-8" target="XEaoXnlyZoOjbljqCAQR-25">
          <mxGeometry relative="1" as="geometry" />
        </mxCell>
        <mxCell id="XEaoXnlyZoOjbljqCAQR-8" value="loadpdb/_tabulate_a_struct&lt;br&gt;(struct, count)" style="rounded=0;whiteSpace=wrap;html=1;fillColor=#d5e8d4;strokeColor=#82b366;" vertex="1" parent="1">
          <mxGeometry x="220" y="240" width="160" height="40" as="geometry" />
        </mxCell>
        <mxCell id="XEaoXnlyZoOjbljqCAQR-14" style="edgeStyle=none;curved=1;rounded=0;orthogonalLoop=1;jettySize=auto;html=1;fontSize=12;startSize=8;endSize=8;" edge="1" parent="1" source="XEaoXnlyZoOjbljqCAQR-12" target="XEaoXnlyZoOjbljqCAQR-3">
          <mxGeometry relative="1" as="geometry">
            <mxPoint x="530" y="160" as="targetPoint" />
          </mxGeometry>
        </mxCell>
        <mxCell id="XEaoXnlyZoOjbljqCAQR-12" value="struct = ts.query_struct_from_expr&lt;br&gt;(expr, top_node_offset=virt_base, io_stream=stream)" style="rounded=0;whiteSpace=wrap;html=1;fillColor=#f8cecc;strokeColor=#b85450;" vertex="1" parent="1">
          <mxGeometry x="370" y="180" width="320" height="40" as="geometry" />
        </mxCell>
        <mxCell id="XEaoXnlyZoOjbljqCAQR-70" style="edgeStyle=none;curved=1;rounded=0;orthogonalLoop=1;jettySize=auto;html=1;fontSize=12;startSize=8;endSize=8;" edge="1" parent="1" source="XEaoXnlyZoOjbljqCAQR-17">
          <mxGeometry relative="1" as="geometry">
            <mxPoint x="820" y="320" as="targetPoint" />
          </mxGeometry>
        </mxCell>
        <mxCell id="XEaoXnlyZoOjbljqCAQR-17" value="loadpdb/_duplicate_as_array&lt;br style=&quot;border-color: var(--border-color);&quot;&gt;(struct, count)" style="rounded=0;whiteSpace=wrap;html=1;fillColor=#dae8fc;strokeColor=#6c8ebf;" vertex="1" parent="1">
          <mxGeometry x="720" y="240" width="200" height="40" as="geometry" />
        </mxCell>
        <mxCell id="XEaoXnlyZoOjbljqCAQR-61" style="edgeStyle=none;curved=1;rounded=0;orthogonalLoop=1;jettySize=auto;html=1;exitX=0.25;exitY=1;exitDx=0;exitDy=0;fontSize=12;startSize=8;endSize=8;" edge="1" parent="1" source="XEaoXnlyZoOjbljqCAQR-20" target="XEaoXnlyZoOjbljqCAQR-31">
          <mxGeometry relative="1" as="geometry" />
        </mxCell>
        <mxCell id="XEaoXnlyZoOjbljqCAQR-62" style="edgeStyle=none;curved=1;rounded=0;orthogonalLoop=1;jettySize=auto;html=1;exitX=0.75;exitY=1;exitDx=0;exitDy=0;fontSize=12;startSize=8;endSize=8;" edge="1" parent="1" source="XEaoXnlyZoOjbljqCAQR-20" target="XEaoXnlyZoOjbljqCAQR-8">
          <mxGeometry relative="1" as="geometry" />
        </mxCell>
        <mxCell id="XEaoXnlyZoOjbljqCAQR-20" value="struct = ts.query_struct_from_expr&lt;br&gt;(expr, top_node_offset=offset, io_stream=None)" style="rounded=0;whiteSpace=wrap;html=1;fillColor=#f8cecc;strokeColor=#b85450;" vertex="1" parent="1">
          <mxGeometry x="60" y="120" width="280" height="40" as="geometry" />
        </mxCell>
        <mxCell id="XEaoXnlyZoOjbljqCAQR-25" value="expr, offset, count&lt;br&gt;&lt;b&gt;⬇ loadpdb.expand_expr_to_table&lt;br&gt;&lt;/b&gt;list" style="rounded=1;whiteSpace=wrap;html=1;" vertex="1" parent="1">
          <mxGeometry x="220" y="320" width="200" height="60" as="geometry" />
        </mxCell>
        <mxCell id="XEaoXnlyZoOjbljqCAQR-33" style="edgeStyle=none;curved=1;rounded=0;orthogonalLoop=1;jettySize=auto;html=1;fontSize=12;startSize=8;endSize=8;" edge="1" parent="1" source="XEaoXnlyZoOjbljqCAQR-31" target="XEaoXnlyZoOjbljqCAQR-1">
          <mxGeometry relative="1" as="geometry" />
        </mxCell>
        <mxCell id="XEaoXnlyZoOjbljqCAQR-31" value="loadpdb/_duplicate_as_array&lt;br&gt;(struct, count)" style="rounded=0;whiteSpace=wrap;html=1;fillColor=#dae8fc;strokeColor=#6c8ebf;" vertex="1" parent="1">
          <mxGeometry x="20" y="240" width="160" height="40" as="geometry" />
        </mxCell>
        <mxCell id="XEaoXnlyZoOjbljqCAQR-37" style="edgeStyle=none;curved=1;rounded=0;orthogonalLoop=1;jettySize=auto;html=1;fontSize=12;strokeColor=none;strokeWidth=3;shape=flexArrow;" edge="1" parent="1" source="XEaoXnlyZoOjbljqCAQR-36" target="XEaoXnlyZoOjbljqCAQR-1">
          <mxGeometry relative="1" as="geometry" />
        </mxCell>
        <mxCell id="XEaoXnlyZoOjbljqCAQR-38" style="edgeStyle=elbowEdgeStyle;rounded=1;orthogonalLoop=1;jettySize=auto;html=1;fontSize=12;endArrow=oval;endFill=1;elbow=vertical;curved=0;strokeWidth=6;fillColor=#b0e3e6;strokeColor=#0e8088;" edge="1" parent="1" source="XEaoXnlyZoOjbljqCAQR-36" target="XEaoXnlyZoOjbljqCAQR-1">
          <mxGeometry relative="1" as="geometry" />
        </mxCell>
        <mxCell id="XEaoXnlyZoOjbljqCAQR-36" value="BinParser&lt;br&gt;Parse Struct" style="shape=note;whiteSpace=wrap;html=1;backgroundOutline=1;darkOpacity=0.05;size=14;" vertex="1" parent="1">
          <mxGeometry x="30" y="480" width="140" height="60" as="geometry" />
        </mxCell>
        <mxCell id="XEaoXnlyZoOjbljqCAQR-40" style="edgeStyle=elbowEdgeStyle;rounded=1;orthogonalLoop=1;jettySize=auto;html=1;fontSize=12;endArrow=oval;endFill=1;elbow=vertical;curved=0;strokeWidth=6;fillColor=#b0e3e6;strokeColor=#0e8088;" edge="1" parent="1" source="XEaoXnlyZoOjbljqCAQR-39" target="XEaoXnlyZoOjbljqCAQR-25">
          <mxGeometry relative="1" as="geometry" />
        </mxCell>
        <mxCell id="XEaoXnlyZoOjbljqCAQR-39" value="BinParser&lt;br&gt;Parse Array" style="shape=note;whiteSpace=wrap;html=1;backgroundOutline=1;darkOpacity=0.05;size=14;" vertex="1" parent="1">
          <mxGeometry x="250" y="480" width="140" height="60" as="geometry" />
        </mxCell>
        <mxCell id="XEaoXnlyZoOjbljqCAQR-42" style="edgeStyle=elbowEdgeStyle;rounded=1;orthogonalLoop=1;jettySize=auto;html=1;fontSize=12;endArrow=oval;endFill=1;elbow=vertical;curved=0;strokeWidth=6;fillColor=#b0e3e6;strokeColor=#0e8088;" edge="1" parent="1" source="XEaoXnlyZoOjbljqCAQR-41" target="XEaoXnlyZoOjbljqCAQR-3">
          <mxGeometry relative="1" as="geometry" />
        </mxCell>
        <mxCell id="XEaoXnlyZoOjbljqCAQR-41" value="Expression View&lt;br&gt;Add Expr" style="shape=note;whiteSpace=wrap;html=1;backgroundOutline=1;darkOpacity=0.05;size=14;" vertex="1" parent="1">
          <mxGeometry x="460" y="480" width="140" height="60" as="geometry" />
        </mxCell>
        <mxCell id="XEaoXnlyZoOjbljqCAQR-44" style="edgeStyle=elbowEdgeStyle;rounded=1;orthogonalLoop=1;jettySize=auto;html=1;fontSize=12;endArrow=oval;endFill=1;elbow=vertical;curved=0;strokeWidth=6;fillColor=#b0e3e6;strokeColor=#0e8088;entryX=0.25;entryY=1;entryDx=0;entryDy=0;" edge="1" parent="1" source="XEaoXnlyZoOjbljqCAQR-43" target="XEaoXnlyZoOjbljqCAQR-5">
          <mxGeometry relative="1" as="geometry" />
        </mxCell>
        <mxCell id="XEaoXnlyZoOjbljqCAQR-43" value="StructTreeView:&lt;br&gt;on expand pointer&lt;br&gt;(cast_expr)" style="shape=note;whiteSpace=wrap;html=1;backgroundOutline=1;darkOpacity=0.05;size=14;" vertex="1" parent="1">
          <mxGeometry x="665" y="480" width="140" height="60" as="geometry" />
        </mxCell>
        <mxCell id="XEaoXnlyZoOjbljqCAQR-46" style="edgeStyle=elbowEdgeStyle;rounded=1;orthogonalLoop=1;jettySize=auto;html=1;fontSize=12;endArrow=oval;endFill=1;elbow=vertical;curved=0;strokeWidth=6;fillColor=#b0e3e6;strokeColor=#0e8088;entryX=0.75;entryY=1;entryDx=0;entryDy=0;" edge="1" parent="1" source="XEaoXnlyZoOjbljqCAQR-45" target="XEaoXnlyZoOjbljqCAQR-5">
          <mxGeometry relative="1" as="geometry" />
        </mxCell>
        <mxCell id="XEaoXnlyZoOjbljqCAQR-45" value="StructTreeView:&lt;br&gt;on PVOID changed&lt;br&gt;(cast_expr, addr, count)" style="shape=note;whiteSpace=wrap;html=1;backgroundOutline=1;darkOpacity=0.05;size=14;" vertex="1" parent="1">
          <mxGeometry x="840" y="480" width="140" height="60" as="geometry" />
        </mxCell>
        <mxCell id="XEaoXnlyZoOjbljqCAQR-59" style="edgeStyle=elbowEdgeStyle;rounded=1;orthogonalLoop=1;jettySize=auto;html=1;fontSize=12;startSize=8;endSize=8;strokeWidth=6;fillColor=#b0e3e6;strokeColor=#0e8088;endArrow=oval;endFill=1;entryX=1;entryY=0.5;entryDx=0;entryDy=0;" edge="1" parent="1" source="XEaoXnlyZoOjbljqCAQR-47" target="XEaoXnlyZoOjbljqCAQR-5">
          <mxGeometry relative="1" as="geometry">
            <Array as="points">
              <mxPoint x="1085" y="430" />
            </Array>
          </mxGeometry>
        </mxCell>
        <mxCell id="XEaoXnlyZoOjbljqCAQR-47" value="StructTreeView:&lt;br&gt;on count changed&lt;br&gt;(cast_expr, addr, count)" style="shape=note;whiteSpace=wrap;html=1;backgroundOutline=1;darkOpacity=0.05;size=14;" vertex="1" parent="1">
          <mxGeometry x="1010" y="480" width="150" height="60" as="geometry" />
        </mxCell>
        <mxCell id="XEaoXnlyZoOjbljqCAQR-51" style="edgeStyle=elbowEdgeStyle;rounded=1;orthogonalLoop=1;jettySize=auto;html=1;fontSize=12;startSize=8;endSize=8;elbow=vertical;entryX=0.25;entryY=1;entryDx=0;entryDy=0;endArrow=oval;endFill=1;curved=0;strokeWidth=6;fillColor=#b0e3e6;strokeColor=#0e8088;exitX=0.5;exitY=0;exitDx=0;exitDy=0;exitPerimeter=0;" edge="1" parent="1" source="XEaoXnlyZoOjbljqCAQR-49" target="XEaoXnlyZoOjbljqCAQR-3">
          <mxGeometry relative="1" as="geometry">
            <mxPoint x="410" y="610" as="sourcePoint" />
            <mxPoint x="450" y="310" as="targetPoint" />
            <Array as="points">
              <mxPoint x="400" y="440" />
            </Array>
          </mxGeometry>
        </mxCell>
        <mxCell id="XEaoXnlyZoOjbljqCAQR-68" style="edgeStyle=elbowEdgeStyle;rounded=1;orthogonalLoop=1;jettySize=auto;html=1;fontSize=12;startSize=8;endSize=8;curved=0;strokeWidth=6;fillColor=#b0e3e6;strokeColor=#0e8088;endArrow=oval;endFill=1;" edge="1" parent="1" source="XEaoXnlyZoOjbljqCAQR-49" target="XEaoXnlyZoOjbljqCAQR-5">
          <mxGeometry relative="1" as="geometry">
            <Array as="points">
              <mxPoint x="640" y="500" />
            </Array>
          </mxGeometry>
        </mxCell>
        <mxCell id="XEaoXnlyZoOjbljqCAQR-49" value="Script Usage" style="shape=note;whiteSpace=wrap;html=1;backgroundOutline=1;darkOpacity=0.05;size=14;" vertex="1" parent="1">
          <mxGeometry x="360" y="600" width="140" height="60" as="geometry" />
        </mxCell>
        <mxCell id="XEaoXnlyZoOjbljqCAQR-60" style="edgeStyle=none;curved=1;rounded=0;orthogonalLoop=1;jettySize=auto;html=1;fontSize=12;startSize=8;endSize=8;" edge="1" parent="1" source="XEaoXnlyZoOjbljqCAQR-55" target="XEaoXnlyZoOjbljqCAQR-17">
          <mxGeometry relative="1" as="geometry" />
        </mxCell>
        <mxCell id="XEaoXnlyZoOjbljqCAQR-55" value="struct = ts.deref_pointer_lf&lt;br&gt;(expr=&amp;nbsp;cast_expr, addr=seval(s), io_stream=stream)" style="rounded=0;whiteSpace=wrap;html=1;fillColor=#ffff88;strokeColor=#36393d;" vertex="1" parent="1">
          <mxGeometry x="670" y="120" width="300" height="40" as="geometry" />
        </mxCell>
        <mxCell id="XEaoXnlyZoOjbljqCAQR-66" value="expr_modify" style="rounded=1;whiteSpace=wrap;html=1;fillColor=#fad7ac;strokeColor=#b46504;fontColor=#b46505;" vertex="1" parent="1">
          <mxGeometry x="760" y="190" width="120" height="20" as="geometry" />
        </mxCell>
      </root>
    </mxGraphModel>
  </diagram>
</mxfile>
